<svg xmlns="http://www.w3.org/2000/svg" width="400" height="400" viewBox="0 0 400 400">
  <g fill="none" fill-rule="evenodd">
    <path fill="#15212A" d="M200,400 C256.002511,400 323.69402,397.090864 360,360 C395.302376,323.934435 400,254.454438 400,200 C400,144.686513 396.291143,76.2060003 360,40 C323.820409,3.90529021 255.143463,0 200,0 C144.831688,0 76.1834932,3.87660435 40,40 C3.73758796,76.2021834 0,144.711362 0,200 C0,255.967486 2.94992906,323.698829 40,360 C76.0716308,395.342508 145.510536,400 200,400 Z"/>
    <path fill="#F6F8FA" d="M136.317272 242.721457C136.317272 240.509402 138.104526 238.716177 140.32373 238.716177L183.369101 238.716177C185.581806 238.716177 187.375559 240.510947 187.375559 242.721457L187.375559 260.525969C187.375559 262.738024 185.588305 264.53125 183.369101 264.53125L140.32373 264.53125C138.111025 264.53125 136.317272 262.73648 136.317272 260.525969L136.317272 242.721457zM212.902286 242.721457C212.902286 240.509402 214.688412 238.716177 216.906217 238.716177L259.924432 238.716177C262.135741 238.716177 263.928362 240.510947 263.928362 242.721457L263.928362 260.525969C263.928362 262.738024 262.142236 264.53125 259.924432 264.53125L216.906217 264.53125C214.694907 264.53125 212.902286 262.73648 212.902286 260.525969L212.902286 242.721457z"/>
    <rect width="127.666" height="25.815" x="136.279" y="187.088" fill="#F6F8FA" rx="4"/>
    <path fill="#F6F8FA" d="M136.317272,139.467426 C136.317272,137.25551 138.116424,135.462398 140.314101,135.462398 L208.915121,135.462398 C211.122508,135.462398 212.911949,137.257055 212.911949,139.467426 L212.911949,157.270815 C212.911949,159.482731 211.112798,161.275843 208.915121,161.275843 L140.314101,161.275843 C138.106713,161.275843 136.317272,159.481186 136.317272,157.270815 L136.317272,139.467426 Z"/>
    <rect width="25.528" height="25.813" x="238.432" y="135.462" fill="#F6F8FA" rx="4"/>
  </g>
</svg>
